{
  "accessors": [
    {
      "bufferView": 2,
      "componentType": 5126,
      "count": 302,
      "max": [
        32.096736907958984,
        26.233985900878906,
        104.60247039794922
      ],
      "min": [
        -88.2078857421875,
        -46.25856399536133,
        -6.275115966796875
      ],
      "type": "VEC3"
    },
    {
      "bufferView": 2,
      "byteOffset": 3624,
      "componentType": 5126,
      "count": 302,
      "max": [
        0.9853555560112,
        0.9981483221054077,
        0.9485187530517578
      ],
      "min": [
        -0.9979076981544495,
        -0.998535692691803,
        -0.9953840374946594
      ],
      "type": "VEC3"
    },
    {
      "bufferView": 1,
      "componentType": 5126,
      "count": 302,
      "max": [
        1.1530401706695557,
        0.9898439049720764
      ],
      "min": [
        0.0080983005464077,
        0.013285472989082336
      ],
      "type": "VEC2"
    },
    {
      "bufferView": 1,
      "byteOffset": 2416,
      "componentType": 5126,
      "count": 302,
      "max": [
        0.9979669451713562,
        0.9882302284240723
      ],
      "min": [
        0.016662228852510452,
        0.01368109229952097
      ],
      "type": "VEC2"
    },
    {
      "bufferView": 0,
      "componentType": 5125,
      "count": 888,
      "type": "SCALAR"
    },
    {
      "bufferView": 2,
      "byteOffset": 7248,
      "componentType": 5126,
      "count": 2013,
      "max": [
        253.03781127929688,
        14.78766918182373,
        40.32987976074219
      ],
      "min": [
        -4.030242919921875,
        -33.81640625,
        -73.09368896484375
      ],
      "type": "VEC3"
    },
    {
      "bufferView": 2,
      "byteOffset": 31404,
      "componentType": 5126,
      "count": 2013,
      "max": [
        1.0,
        1.0,
        1.0
      ],
      "min": [
        -1.0,
        -1.0,
        -1.0
      ],
      "type": "VEC3"
    },
    {
      "bufferView": 1,
      "byteOffset": 4832,
      "componentType": 5126,
      "count": 2013,
      "max": [
        0.9940120577812195,
        0.9973618984222412
      ],
      "min": [
        0.01675334945321083,
        0.03484972566366196
      ],
      "type": "VEC2"
    },
    {
      "bufferView": 1,
      "byteOffset": 20936,
      "componentType": 5126,
      "count": 2013,
      "max": [
        0.8898152709007263,
        0.9979999661445618
      ],
      "min": [
        0.0020000000949949026,
        0.0020000000949949026
      ],
      "type": "VEC2"
    },
    {
      "bufferView": 0,
      "byteOffset": 3552,
      "componentType": 5125,
      "count": 6270,
      "type": "SCALAR"
    },
    {
      "bufferView": 2,
      "byteOffset": 55560,
      "componentType": 5126,
      "count": 1798,
      "max": [
        132.2772216796875,
        97.76396942138672,
        278.3581848144531
      ],
      "min": [
        -160.144287109375,
        -67.74005889892578,
        1.5889887809753418
      ],
      "type": "VEC3"
    },
    {
      "bufferView": 2,
      "byteOffset": 77136,
      "componentType": 5126,
      "count": 1798,
      "max": [
        0.9996074438095093,
        0.9986721873283386,
        0.9960917830467224
      ],
      "min": [
        -0.9976244568824768,
        -0.9997314810752869,
        -0.9999049305915833
      ],
      "type": "VEC3"
    },
    {
      "bufferView": 1,
      "byteOffset": 37040,
      "componentType": 5126,
      "count": 1798,
      "max": [
        2.763606548309326,
        0.9953818917274475
      ],
      "min": [
        0.00392991304397583,
        0.004138193558901548
      ],
      "type": "VEC2"
    },
    {
      "bufferView": 1,
      "byteOffset": 51424,
      "componentType": 5126,
      "count": 1798,
      "max": [
        0.9979999661445618,
        0.997017502784729
      ],
      "min": [
        0.0020000040531158447,
        0.001999974250793457
      ],
      "type": "VEC2"
    },
    {
      "bufferView": 0,
      "byteOffset": 28632,
      "componentType": 5125,
      "count": 5808,
      "type": "SCALAR"
    },
    {
      "bufferView": 2,
      "byteOffset": 98712,
      "componentType": 5126,
      "count": 714,
      "max": [
        33.444671630859375,
        26.894886016845703,
        131.9001922607422
      ],
      "min": [
        -36.99152374267578,
        -34.66554260253906,
        -58.17072677612305
      ],
      "type": "VEC3"
    },
    {
      "bufferView": 2,
      "byteOffset": 107280,
      "componentType": 5126,
      "count": 714,
      "max": [
        0.9975807666778564,
        0.9999992251396179,
        0.9999996423721313
      ],
      "min": [
        -0.997718870639801,
        -0.9999980926513672,
        -0.9982883930206299
      ],
      "type": "VEC3"
    },
    {
      "bufferView": 1,
      "byteOffset": 65808,
      "componentType": 5126,
      "count": 714,
      "max": [
        0.9941569566726685,
        0.9905482530593872
      ],
      "min": [
        0.017243504524230957,
        0.007285613566637039
      ],
      "type": "VEC2"
    },
    {
      "bufferView": 1,
      "byteOffset": 71520,
      "componentType": 5126,
      "count": 714,
      "max": [
        0.9979999661445618,
        0.9909600615501404
      ],
      "min": [
        0.0020000338554382324,
        0.001999996602535248
      ],
      "type": "VEC2"
    },
    {
      "bufferView": 0,
      "byteOffset": 51864,
      "componentType": 5125,
      "count": 1962,
      "type": "SCALAR"
    },
    {
      "bufferView": 2,
      "byteOffset": 115848,
      "componentType": 5126,
      "count": 4383,
      "max": [
        44.03762435913086,
        77.77366638183594,
        10.873855590820313
      ],
      "min": [
        -37.33109664916992,
        -55.8296012878418,
        -120.74398040771484
      ],
      "type": "VEC3"
    },
    {
      "bufferView": 2,
      "byteOffset": 168444,
      "componentType": 5126,
      "count": 4383,
      "max": [
        1.0,
        1.0,
        1.0
      ],
      "min": [
        -1.0,
        -1.0,
        -1.0
      ],
      "type": "VEC3"
    },
    {
      "bufferView": 1,
      "byteOffset": 77232,
      "componentType": 5126,
      "count": 4383,
      "max": [
        1.994512915611267,
        0.9977926015853882
      ],
      "min": [
        0.0036298357881605625,
        0.006687036715447903
      ],
      "type": "VEC2"
    },
    {
      "bufferView": 1,
      "byteOffset": 112296,
      "componentType": 5126,
      "count": 4383,
      "max": [
        0.9979999661445618,
        0.9971517324447632
      ],
      "min": [
        0.0020000000949949026,
        0.0020000000949949026
      ],
      "type": "VEC2"
    },
    {
      "bufferView": 0,
      "byteOffset": 59712,
      "componentType": 5125,
      "count": 11268,
      "type": "SCALAR"
    },
    {
      "bufferView": 2,
      "byteOffset": 221040,
      "componentType": 5126,
      "count": 189,
      "max": [
        217.10134887695313,
        217.10133361816406,
        71.49987030029297
      ],
      "min": [
        -217.10134887695313,
        -217.1013641357422,
        -5.243400573730469
      ],
      "type": "VEC3"
    },
    {
      "bufferView": 2,
      "byteOffset": 223308,
      "componentType": 5126,
      "count": 189,
      "max": [
        0.5131058692932129,
        0.44999173283576965,
        0.9996053576469421
      ],
      "min": [
        -0.44999152421951294,
        -0.5827336311340332,
        -1.0
      ],
      "type": "VEC3"
    },
    {
      "bufferView": 1,
      "byteOffset": 147360,
      "componentType": 5126,
      "count": 189,
      "max": [
        1.0,
        1.0
      ],
      "min": [
        0.0,
        0.0
      ],
      "type": "VEC2"
    },
    {
      "bufferView": 1,
      "byteOffset": 148872,
      "componentType": 5126,
      "count": 189,
      "max": [
        1.0,
        1.0
      ],
      "min": [
        0.0,
        0.0
      ],
      "type": "VEC2"
    },
    {
      "bufferView": 0,
      "byteOffset": 104784,
      "componentType": 5125,
      "count": 960,
      "type": "SCALAR"
    },
    {
      "bufferView": 2,
      "byteOffset": 225576,
      "componentType": 5126,
      "count": 17609,
      "max": [
        75.49369812011719,
        103.2688980102539,
        103.9346923828125
      ],
      "min": [
        -75.49369812011719,
        -103.26889038085938,
        -103.9346923828125
      ],
      "type": "VEC3"
    },
    {
      "bufferView": 2,
      "byteOffset": 436884,
      "componentType": 5126,
      "count": 17609,
      "max": [
        0.9998705387115479,
        0.9999775886535645,
        0.9998832941055298
      ],
      "min": [
        -0.9999390840530396,
        -0.9997893571853638,
        -0.9997171759605408
      ],
      "type": "VEC3"
    },
    {
      "bufferView": 1,
      "byteOffset": 150384,
      "componentType": 5126,
      "count": 17609,
      "max": [
        1.994286060333252,
        0.9924255013465881
      ],
      "min": [
        0.0056285858154296875,
        0.007850218564271927
      ],
      "type": "VEC2"
    },
    {
      "bufferView": 1,
      "byteOffset": 291256,
      "componentType": 5126,
      "count": 17609,
      "max": [
        0.9992302060127258,
        0.9983130097389221
      ],
      "min": [
        0.001656227745115757,
        0.0020324476063251495
      ],
      "type": "VEC2"
    },
    {
      "bufferView": 0,
      "byteOffset": 108624,
      "componentType": 5125,
      "count": 66546,
      "type": "SCALAR"
    },
    {
      "bufferView": 2,
      "byteOffset": 648192,
      "componentType": 5126,
      "count": 72,
      "max": [
        338.31658935546875,
        143.16966247558594,
        143.86203002929688
      ],
      "min": [
        -110.43772888183594,
        -143.8062744140625,
        -143.11373901367188
      ],
      "type": "VEC3"
    },
    {
      "bufferView": 2,
      "byteOffset": 649056,
      "componentType": 5126,
      "count": 72,
      "max": [
        1.0,
        0.8413224220275879,
        1.0
      ],
      "min": [
        -1.0200767519563669e-07,
        -1.0,
        -0.8413224220275879
      ],
      "type": "VEC3"
    },
    {
      "bufferView": 1,
      "byteOffset": 432128,
      "componentType": 5126,
      "count": 72,
      "max": [
        0.9514036178588867,
        0.6432915925979614
      ],
      "min": [
        0.07994776964187622,
        -0.027341365814208984
      ],
      "type": "VEC2"
    },
    {
      "bufferView": 0,
      "byteOffset": 374808,
      "componentType": 5125,
      "count": 192,
      "type": "SCALAR"
    },
    {
      "bufferView": 2,
      "byteOffset": 649920,
      "componentType": 5126,
      "count": 361,
      "max": [
        71.11817932128906,
        32.251251220703125,
        71.11333465576172
      ],
      "min": [
        -71.87847900390625,
        -37.65244674682617,
        0.4638887345790863
      ],
      "type": "VEC3"
    },
    {
      "bufferView": 2,
      "byteOffset": 654252,
      "componentType": 5126,
      "count": 361,
      "max": [
        0.9986061453819275,
        0.9996898174285889,
        0.9991787672042847
      ],
      "min": [
        -0.9545921087265015,
        -0.9987341165542603,
        -0.8428860902786255
      ],
      "type": "VEC3"
    },
    {
      "bufferView": 1,
      "byteOffset": 432704,
      "componentType": 5126,
      "count": 361,
      "max": [
        0.9913411140441895,
        0.9891148805618286
      ],
      "min": [
        0.005042911507189274,
        0.011728999204933643
      ],
      "type": "VEC2"
    },
    {
      "bufferView": 0,
      "byteOffset": 375576,
      "componentType": 5125,
      "count": 1434,
      "type": "SCALAR"
    }
  ],
  "asset": {
    "extras": {
      "author": "Tristan (https://sketchfab.com/tristanclarysse)",
      "license": "CC-BY-4.0 (http://creativecommons.org/licenses/by/4.0/)",
      "source": "https://sketchfab.com/3d-models/pirate-a-af9d87dd299047c6bb1240a748dd8850",
      "title": "Pirate_A"
    },
    "generator": "Sketchfab-12.68.0",
    "version": "2.0"
  },
  "bufferViews": [
    {
      "buffer": 0,
      "byteLength": 381312,
      "name": "floatBufferViews",
      "target": 34963
    },
    {
      "buffer": 0,
      "byteLength": 435592,
      "byteOffset": 381312,
      "byteStride": 8,
      "name": "floatBufferViews",
      "target": 34962
    },
    {
      "buffer": 0,
      "byteLength": 658584,
      "byteOffset": 816904,
      "byteStride": 12,
      "name": "floatBufferViews",
      "target": 34962
    }
  ],
  "buffers": [
    {
      "byteLength": 1475488,
      "uri": "scene.bin"
    }
  ],
  "images": [
    {
      "uri": "textures/Txt_Pirate_A_Hat_A_baseColor.png"
    },
    {
      "uri": "textures/Pirate_A_Gun_A_baseColor.png"
    },
    {
      "uri": "textures/Pirate_A_baseColor.png"
    },
    {
      "uri": "textures/baked_Txt_Pirate_A_Sword_B_01_baseColor.png"
    },
    {
      "uri": "textures/Txt_Pirate_A_Chest_A_A_baseColor.png"
    },
    {
      "uri": "textures/Sand_baseColor.png"
    },
    {
      "uri": "textures/Txt_Pirate_A_Octopus_A_baseColor.png"
    },
    {
      "uri": "textures/Txt_Vfx_Muzzle_A_baseColor.png"
    },
    {
      "uri": "textures/Txt_Vfx_Muzzle_A_emissive.png"
    },
    {
      "uri": "textures/Rock_A_baseColor.png"
    }
  ],
  "materials": [
    {
      "doubleSided": true,
      "name": "Txt_Pirate_A_Hat_A",
      "pbrMetallicRoughness": {
        "baseColorTexture": {
          "index": 0
        },
        "metallicFactor": 0.0,
        "roughnessFactor": 0.6
      }
    },
    {
      "doubleSided": true,
      "name": "Pirate_A_Gun_A",
      "pbrMetallicRoughness": {
        "baseColorTexture": {
          "index": 1
        },
        "metallicFactor": 0.0,
        "roughnessFactor": 0.6
      }
    },
    {
      "doubleSided": true,
      "name": "Pirate_A",
      "pbrMetallicRoughness": {
        "baseColorTexture": {
          "index": 2
        },
        "metallicFactor": 0.0,
        "roughnessFactor": 0.6
      }
    },
    {
      "doubleSided": true,
      "name": "baked_Txt_Pirate_A_Sword_B_01",
      "pbrMetallicRoughness": {
        "baseColorTexture": {
          "index": 3
        },
        "metallicFactor": 0.0,
        "roughnessFactor": 0.6
      }
    },
    {
      "doubleSided": true,
      "name": "Txt_Pirate_A_Chest_A_A",
      "pbrMetallicRoughness": {
        "baseColorTexture": {
          "index": 4
        },
        "metallicFactor": 0.0,
        "roughnessFactor": 0.6
      }
    },
    {
      "doubleSided": true,
      "name": "Sand",
      "pbrMetallicRoughness": {
        "baseColorTexture": {
          "index": 5
        },
        "metallicFactor": 0.0,
        "roughnessFactor": 0.6
      }
    },
    {
      "doubleSided": true,
      "name": "Txt_Pirate_A_Octopus_A",
      "pbrMetallicRoughness": {
        "baseColorTexture": {
          "index": 6
        },
        "metallicFactor": 0.0,
        "roughnessFactor": 0.6
      }
    },
    {
      "alphaMode": "BLEND",
      "doubleSided": true,
      "emissiveFactor": [
        0.5,
        0.5,
        0.5
      ],
      "emissiveTexture": {
        "index": 8
      },
      "name": "Txt_Vfx_Muzzle_A",
      "pbrMetallicRoughness": {
        "baseColorFactor": [
          1.0,
          1.0,
          1.0,
          0.5
        ],
        "baseColorTexture": {
          "index": 7
        },
        "metallicFactor": 0.0,
        "roughnessFactor": 0.6
      }
    },
    {
      "doubleSided": true,
      "name": "Rock_A",
      "pbrMetallicRoughness": {
        "baseColorTexture": {
          "index": 9
        },
        "metallicFactor": 0.0,
        "roughnessFactor": 0.6
      }
    }
  ],
  "meshes": [
    {
      "name": "Object_0",
      "primitives": [
        {
          "attributes": {
            "NORMAL": 1,
            "POSITION": 0,
            "TEXCOORD_0": 2,
            "TEXCOORD_1": 3
          },
          "indices": 4,
          "material": 0,
          "mode": 4
        }
      ]
    },
    {
      "name": "Object_1",
      "primitives": [
        {
          "attributes": {
            "NORMAL": 6,
            "POSITION": 5,
            "TEXCOORD_0": 7,
            "TEXCOORD_1": 8
          },
          "indices": 9,
          "material": 1,
          "mode": 4
        }
      ]
    },
    {
      "name": "Object_2",
      "primitives": [
        {
          "attributes": {
            "NORMAL": 11,
            "POSITION": 10,
            "TEXCOORD_0": 12,
            "TEXCOORD_1": 13
          },
          "indices": 14,
          "material": 2,
          "mode": 4
        }
      ]
    },
    {
      "name": "Object_3",
      "primitives": [
        {
          "attributes": {
            "NORMAL": 16,
            "POSITION": 15,
            "TEXCOORD_0": 17,
            "TEXCOORD_1": 18
          },
          "indices": 19,
          "material": 3,
          "mode": 4
        }
      ]
    },
    {
      "name": "Object_4",
      "primitives": [
        {
          "attributes": {
            "NORMAL": 21,
            "POSITION": 20,
            "TEXCOORD_0": 22,
            "TEXCOORD_1": 23
          },
          "indices": 24,
          "material": 4,
          "mode": 4
        }
      ]
    },
    {
      "name": "Object_5",
      "primitives": [
        {
          "attributes": {
            "NORMAL": 26,
            "POSITION": 25,
            "TEXCOORD_0": 27,
            "TEXCOORD_1": 28
          },
          "indices": 29,
          "material": 5,
          "mode": 4
        }
      ]
    },
    {
      "name": "Object_6",
      "primitives": [
        {
          "attributes": {
            "NORMAL": 31,
            "POSITION": 30,
            "TEXCOORD_0": 32,
            "TEXCOORD_1": 33
          },
          "indices": 34,
          "material": 6,
          "mode": 4
        }
      ]
    },
    {
      "name": "Object_7",
      "primitives": [
        {
          "attributes": {
            "NORMAL": 36,
            "POSITION": 35,
            "TEXCOORD_0": 37
          },
          "indices": 38,
          "material": 7,
          "mode": 4
        }
      ]
    },
    {
      "name": "Object_8",
      "primitives": [
        {
          "attributes": {
            "NORMAL": 40,
            "POSITION": 39,
            "TEXCOORD_0": 41
          },
          "indices": 42,
          "material": 8,
          "mode": 4
        }
      ]
    }
  ],
  "nodes": [
    {
      "children": [
        1
      ],
      "matrix": [
        1.0,
        0.0,
        0.0,
        0.0,
        0.0,
        2.220446049250313e-16,
        -1.0,
        0.0,
        0.0,
        1.0,
        2.220446049250313e-16,
        0.0,
        0.0,
        0.0,
        0.0,
        1.0
      ],
      "name": "Sketchfab_model"
    },
    {
      "children": [
        2
      ],
      "matrix": [
        1.0,
        0.0,
        0.0,
        0.0,
        0.0,
        0.0,
        1.0,
        0.0,
        0.0,
        -1.0,
        0.0,
        0.0,
        0.0,
        0.0,
        0.0,
        1.0
      ],
      "name": "Pirate_A.FBX"
    },
    {
      "children": [
        3
      ],
      "name": "Object_2"
    },
    {
      "children": [
        4,
        6,
        9,
        12,
        14,
        16,
        18,
        20,
        22
      ],
      "name": "RootNode"
    },
    {
      "children": [
        5
      ],
      "name": "Txt_Pirate_A_Hat_A",
      "rotation": [
        0.9848078489303589,
        0.0,
        0.0,
        0.17364823818206787
      ],
      "translation": [
        2.208984375,
        288.6929931640625,
        -1.1862796545028687
      ]
    },
    {
      "mesh": 0,
      "name": "Object_5"
    },
    {
      "children": [
        7
      ],
      "name": "Txt_Pirate_A_Gun_A",
      "rotation": [
        0.8363038301467896,
        0.24600982666015625,
        0.01695486344397068,
        -0.4896811544895172
      ],
      "translation": [
        103.1556167602539,
        182.0661163330078,
        28.190513610839844
      ]
    },
    {
      "children": [
        8
      ],
      "matrix": [
        1.0,
        0.0,
        -0.0,
        0.0,
        0.0,
        1.0,
        0.0,
        0.0,
        0.0,
        0.0,
        1.0,
        0.0,
        -70.5606918334961,
        5.434709464680054e-07,
        -12.43316650390625,
        1.0
      ],
      "name": "Object_7"
    },
    {
      "mesh": 1,
      "name": "Object_8"
    },
    {
      "children": [
        10
      ],
      "name": "Txt_Pirate_A",
      "rotation": [
        -0.7071068286895752,
        -0.0,
        0.0,
        0.7071068286895752
      ],
      "translation": [
        0.0011038646334782243,
        0.0,
        -0.004294424317777157
      ]
    },
    {
      "children": [
        11
      ],
      "matrix": [
        1.0,
        0.0,
        -0.0,
        0.0,
        0.0,
        1.0,
        0.0,
        0.0,
        0.0,
        0.0,
        1.0,
        0.0,
        0.0,
        0.0,
        -0.682952880859375,
        1.0
      ],
      "name": "Object_10"
    },
    {
      "mesh": 2,
      "name": "Object_11"
    },
    {
      "children": [
        13
      ],
      "name": "Txt_Pirate_A_Sword_B",
      "rotation": [
        -0.33859604597091675,
        -0.6213057637214661,
        -0.09118568152189255,
        0.7007260918617249
      ],
      "translation": [
        -169.4301300048828,
        147.23660278320313,
        10.691685676574707
      ]
    },
    {
      "mesh": 3,
      "name": "Object_13"
    },
    {
      "children": [
        15
      ],
      "name": "Txt_Pirate_A_Chest_A_A",
      "rotation": [
        -0.1486995816230774,
        0.7698761820793152,
        -0.5539661049842834,
        -0.2798224985599518
      ],
      "scale": [
        1.0870749950408936,
        1.0870752334594727,
        1.0870749950408936
      ],
      "translation": [
        62.16462707519531,
        -56.90387725830078,
        73.18034362792969
      ]
    },
    {
      "mesh": 4,
      "name": "Object_15"
    },
    {
      "children": [
        17
      ],
      "name": "Txt_Sand_A",
      "rotation": [
        -0.7071068286895752,
        -0.0,
        0.0,
        0.7071068286895752
      ],
      "translation": [
        2.221282958984375,
        -80.14283752441406,
        -11.141342163085938
      ]
    },
    {
      "mesh": 5,
      "name": "Object_17"
    },
    {
      "children": [
        19
      ],
      "name": "Txt_Pirate_A_Octopus_A",
      "rotation": [
        -0.7071068286895752,
        -0.0,
        0.0,
        0.7071068286895752
      ],
      "translation": [
        18.414531707763672,
        35.18113708496094,
        105.8084487915039
      ]
    },
    {
      "mesh": 6,
      "name": "Object_19"
    },
    {
      "children": [
        21
      ],
      "name": "Txt_Vfx_Muzzle_A",
      "rotation": [
        0.8363038301467896,
        0.24600982666015625,
        0.01695486344397068,
        -0.4896811544895172
      ],
      "translation": [
        306.2792053222656,
        283.16796875,
        85.64115142822266
      ]
    },
    {
      "mesh": 7,
      "name": "Object_21"
    },
    {
      "children": [
        23
      ],
      "name": "Txt_Rock_A",
      "rotation": [
        -0.6123723983764648,
        -0.35355344414711,
        -0.35355344414711,
        0.6123723983764648
      ],
      "translation": [
        -44.86590576171875,
        -49.32466125488281,
        -74.76065063476563
      ]
    },
    {
      "mesh": 8,
      "name": "Object_23"
    }
  ],
  "samplers": [
    {
      "magFilter": 9729,
      "minFilter": 9987,
      "wrapS": 10497,
      "wrapT": 10497
    }
  ],
  "scene": 0,
  "scenes": [
    {
      "name": "Sketchfab_Scene",
      "nodes": [
        0
      ]
    }
  ],
  "textures": [
    {
      "sampler": 0,
      "source": 0
    },
    {
      "sampler": 0,
      "source": 1
    },
    {
      "sampler": 0,
      "source": 2
    },
    {
      "sampler": 0,
      "source": 3
    },
    {
      "sampler": 0,
      "source": 4
    },
    {
      "sampler": 0,
      "source": 5
    },
    {
      "sampler": 0,
      "source": 6
    },
    {
      "sampler": 0,
      "source": 7
    },
    {
      "sampler": 0,
      "source": 8
    },
    {
      "sampler": 0,
      "source": 9
    }
  ]
}
